<?xml version="1.0" encoding="UTF-8" standalone="no"?>
<svg
   xmlns:dc="http://purl.org/dc/elements/1.1/"
   xmlns:cc="http://creativecommons.org/ns#"
   xmlns:rdf="http://www.w3.org/1999/02/22-rdf-syntax-ns#"
   xmlns:svg="http://www.w3.org/2000/svg"
   xmlns="http://www.w3.org/2000/svg"
   xmlns:sodipodi="http://sodipodi.sourceforge.net/DTD/sodipodi-0.dtd"
   xmlns:inkscape="http://www.inkscape.org/namespaces/inkscape"
   width="24"
   height="24"
   viewBox="0 0 24 24"
   class="feather feather-hexagon"
   version="1.1"
   id="svg4424"
   sodipodi:docname="icon.svg"
   stroke-linejoin="round"
   stroke-linecap="round"
   stroke-width="2"
   stroke="currentColor"
   fill="none"
   inkscape:export-filename="C:\Users\Tawwab.Djalielie\Desktop\AssociationEx\icons\icon32square.png"
   inkscape:export-xdpi="128"
   inkscape:export-ydpi="128"
   inkscape:version="0.92.4 (5da689c313, 2019-01-14)">
  <metadata
     id="metadata4430">
    <rdf:RDF>
      <cc:Work
         rdf:about="">
        <dc:format>image/svg+xml</dc:format>
        <dc:type
           rdf:resource="http://purl.org/dc/dcmitype/StillImage" />
        <dc:title></dc:title>
      </cc:Work>
    </rdf:RDF>
  </metadata>
  <defs
     id="defs4428">
    <clipPath
       clipPathUnits="userSpaceOnUse"
       id="clipPath18">
      <path
         d="M 9.12e-6,0 H 612.00001 V 792 H 9.12e-6 Z"
         id="path16"
         style="clip-rule:evenodd" />
    </clipPath>
    <clipPath
       clipPathUnits="userSpaceOnUse"
       id="clipPath30">
      <path
         d="M 9.12e-6,0 H 612.00001 V 792 H 9.12e-6 Z"
         id="path28"
         style="clip-rule:evenodd" />
    </clipPath>
  </defs>
  <sodipodi:namedview
     pagecolor="#ffffff"
     bordercolor="#666666"
     borderopacity="1"
     objecttolerance="10"
     gridtolerance="10"
     guidetolerance="10"
     inkscape:pageopacity="0"
     inkscape:pageshadow="2"
     inkscape:window-width="3840"
     inkscape:window-height="2050"
     id="namedview4426"
     showgrid="true"
     inkscape:zoom="45.254834"
     inkscape:cx="10.383333"
     inkscape:cy="16.903994"
     inkscape:window-x="-12"
     inkscape:window-y="2508"
     inkscape:window-maximized="1"
     inkscape:current-layer="layer5"
     inkscape:pagecheckerboard="true"
     showguides="false">
    <inkscape:grid
       type="xygrid"
       id="grid4541" />
  </sodipodi:namedview>
  <path
     d="M 21.72,16.32 V 7.68 A 2.16,2.16 0 0 0 20.64,5.8116 l -7.56,-4.32 a 2.16,2.16 0 0 0 -2.16,0 l -7.56,4.32 A 2.16,2.16 0 0 0 2.28,7.68 v 8.64 a 2.16,2.16 0 0 0 1.08,1.8684 l 7.56,4.32 a 2.16,2.16 0 0 0 2.16,0 l 7.56,-4.32 A 2.16,2.16 0 0 0 21.72,16.32 Z"
     id="path4422"
     style="fill:#2b55e2;fill-opacity:1;stroke:#000000;stroke-width:2.16000009;stroke-opacity:1"
     inkscape:connector-curvature="0" />
  <g
     inkscape:groupmode="layer"
     id="layer1"
     inkscape:label="Layer 1"
     style="display:none"
     sodipodi:insensitive="true" />
  <g
     inkscape:groupmode="layer"
     id="layer4"
     inkscape:label="Layer 2"
     style="display:inline">
    <path
       style="fill:#6e8beb;fill-opacity:1;stroke:#000000;stroke-width:0;stroke-miterlimit:4;stroke-dasharray:none;stroke-opacity:1"
       d="m 11.655154,23.529215 c -0.326161,-0.04231 -0.682928,-0.14151 -0.955093,-0.26554 C 10.470062,23.158861 2.9887422,18.878509 2.794758,18.740745 2.5710674,18.581884 2.2392212,18.247193 2.075788,18.015611 1.9225824,17.798519 1.7226042,17.400749 1.6450116,17.158766 1.6155276,17.066804 1.570362,16.888116 1.544658,16.761672 L 1.4979156,16.531775 V 11.975648 7.41952 L 1.553514,7.1676129 C 1.7367846,6.3371388 2.1823678,5.662841 2.8564001,5.1959651 3.0103973,5.0892967 10.360142,0.88315496 10.610935,0.75816688 c 0.866834,-0.43200194 1.918252,-0.43247433 2.777138,-0.001253 0.256807,0.12893645 7.508875,4.27254862 7.703287,4.40142422 0.710327,0.4708764 1.170405,1.1546169 1.363312,2.0260758 l 0.04741,0.2142013 v 4.5874778 4.587477 l -0.04827,0.219445 c -0.144901,0.658646 -0.420337,1.171331 -0.870341,1.620018 -0.127223,0.126849 -0.315304,0.287477 -0.41896,0.357804 -0.158572,0.107589 -7.47461,4.301346 -7.738548,4.435954 -0.28523,0.145467 -0.711477,0.27605 -1.028314,0.315029 -0.167728,0.02065 -0.606733,0.025 -0.742486,0.0073 z m 0.659319,-2.116061 c 0.08672,-0.027 1.385188,-0.756919 3.894426,-2.18924 3.518298,-2.008312 3.7733,-2.157626 3.901696,-2.284595 0.08104,-0.08015 0.160822,-0.184105 0.194556,-0.253534 0.124368,-0.255951 0.116895,0.04278 0.117165,-4.682983 1.88e-4,-3.1369989 -0.0063,-4.3715937 -0.02327,-4.4516304 C 20.360614,7.3701383 20.256825,7.1815683 20.119518,7.0433008 20.004675,6.9276531 19.676343,6.7355336 16.21849,4.7606592 14.141893,3.5746581 12.39259,2.587352 12.331152,2.5666458 12.163845,2.510259 11.799153,2.5158275 11.645106,2.5771218 11.582109,2.6021886 9.8380763,3.5891245 7.7694886,4.7703135 3.6611934,7.1161977 3.8571681,6.9953035 3.7085763,7.2754408 3.569468,7.5377021 3.578081,7.2268603 3.5777408,11.997384 c -3.392e-4,4.756832 -0.0094,4.424855 0.1271732,4.695269 0.143006,0.283294 -0.063353,0.155697 4.0814777,2.523778 2.1603879,1.234302 3.8307743,2.176016 3.8977883,2.197455 0.164387,0.05258 0.460084,0.05225 0.630293,-7.32e-4 z"
       id="path4506"
       inkscape:connector-curvature="0" />
  </g>
  <g
     inkscape:groupmode="layer"
     id="layer5"
     inkscape:label="Layer 3"
     style="display:inline;opacity:0.95">
    <g
       id="g4658"
       transform="matrix(1.08,0,0,1.08,-0.96,-0.95773463)">
      <g
         transform="matrix(0.4733401,0.12971673,-0.12971673,0.4733401,7.884959,4.7265612)"
         id="g4539"
         style="fill:none;stroke:currentColor;stroke-width:2;stroke-linecap:round;stroke-linejoin:round">
        <path
           style="stroke:#e22b55;stroke-opacity:1"
           inkscape:connector-curvature="0"
           d="M 6.13,1 6.0562322,9.5116644 6,16 c 0,1.104569 0.8954305,2 2,2 h 15"
           id="path4525"
           sodipodi:nodetypes="cccsc" />
        <path
           style="stroke:#55e22b;stroke-opacity:1"
           inkscape:connector-curvature="0"
           d="M 1,6.13 16,6 a 2,2 0 0 1 2,2 v 15"
           id="path4527" />
      </g>
    </g>
  </g>
  <g
     inkscape:groupmode="layer"
     id="layer9"
     inkscape:label="Layer 4"
     style="display:inline">
    <g
       id="g10"
       transform="matrix(1.3333333,0,0,-1.3333333,-73.969097,961.27128)">
      <g
         id="g12">
        <g
           id="g14"
           clip-path="url(#clipPath18)" />
      </g>
      <g
         id="g24">
        <g
           id="g26"
           clip-path="url(#clipPath30)" />
      </g>
    </g>
  </g>
</svg>
