<?xml version="1.0" encoding="UTF-8" standalone="no"?>
<svg
   xmlns:dc="http://purl.org/dc/elements/1.1/"
   xmlns:cc="http://creativecommons.org/ns#"
   xmlns:rdf="http://www.w3.org/1999/02/22-rdf-syntax-ns#"
   xmlns:svg="http://www.w3.org/2000/svg"
   xmlns="http://www.w3.org/2000/svg"
   xmlns:sodipodi="http://sodipodi.sourceforge.net/DTD/sodipodi-0.dtd"
   xmlns:inkscape="http://www.inkscape.org/namespaces/inkscape"
   width="24"
   height="24"
   viewBox="0 0 24 24"
   class="feather feather-hexagon"
   version="1.1"
   id="svg4424"
   sodipodi:docname="iconA.svg"
   stroke-linejoin="round"
   stroke-linecap="round"
   stroke-width="2"
   stroke="currentColor"
   fill="none"
   inkscape:export-filename="C:\Users\Tawwab.Djalielie\Desktop\AssociationEx\icons\iocn232.png"
   inkscape:export-xdpi="139.67004"
   inkscape:export-ydpi="139.67004"
   inkscape:version="0.92.4 (5da689c313, 2019-01-14)">
  <metadata
     id="metadata4430">
    <rdf:RDF>
      <cc:Work
         rdf:about="">
        <dc:format>image/svg+xml</dc:format>
        <dc:type
           rdf:resource="http://purl.org/dc/dcmitype/StillImage" />
        <dc:title></dc:title>
      </cc:Work>
    </rdf:RDF>
  </metadata>
  <defs
     id="defs4428">
    <clipPath
       clipPathUnits="userSpaceOnUse"
       id="clipPath18">
      <path
         d="M 9.12e-6,0 H 612.00001 V 792 H 9.12e-6 Z"
         id="path16"
         style="clip-rule:evenodd" />
    </clipPath>
    <clipPath
       clipPathUnits="userSpaceOnUse"
       id="clipPath30">
      <path
         d="M 9.12e-6,0 H 612.00001 V 792 H 9.12e-6 Z"
         id="path28"
         style="clip-rule:evenodd" />
    </clipPath>
  </defs>
  <sodipodi:namedview
     pagecolor="#ffffff"
     bordercolor="#666666"
     borderopacity="1"
     objecttolerance="10"
     gridtolerance="10"
     guidetolerance="10"
     inkscape:pageopacity="0"
     inkscape:pageshadow="2"
     inkscape:window-width="6020"
     inkscape:window-height="2410"
     id="namedview4426"
     showgrid="true"
     inkscape:zoom="64"
     inkscape:cx="3.6339022"
     inkscape:cy="13.070065"
     inkscape:window-x="310"
     inkscape:window-y="-12"
     inkscape:window-maximized="1"
     inkscape:current-layer="svg4424"
     inkscape:pagecheckerboard="true"
     showguides="false">
    <inkscape:grid
       type="xygrid"
       id="grid4541" />
  </sodipodi:namedview>
  <path
     d="M 21,16 V 8 A 2,2 0 0 0 20,6.27 l -7,-4 a 2,2 0 0 0 -2,0 l -7,4 A 2,2 0 0 0 3,8 v 8 a 2,2 0 0 0 1,1.73 l 7,4 a 2,2 0 0 0 2,0 l 7,-4 A 2,2 0 0 0 21,16 Z"
     id="path4422"
     style="fill:#2b55e2;fill-opacity:1;stroke:#000000;stroke-opacity:1"
     inkscape:connector-curvature="0" />
  <g
     inkscape:groupmode="layer"
     id="layer1"
     inkscape:label="Layer 1"
     style="display:none"
     sodipodi:insensitive="true" />
  <g
     inkscape:groupmode="layer"
     id="layer4"
     inkscape:label="Layer 2"
     style="display:inline">
    <path
       style="fill:#6e8beb;stroke:#000000;stroke-width:0;stroke-opacity:1;stroke-miterlimit:4;stroke-dasharray:none;fill-opacity:1"
       d="m 11.680698,22.674237 c -0.302001,-0.03918 -0.632341,-0.131028 -0.884345,-0.24587 -0.212962,-0.09705 -7.1401102,-4.060339 -7.3197252,-4.187899 -0.207121,-0.147093 -0.514386,-0.456992 -0.665713,-0.67142 -0.141857,-0.201011 -0.327022,-0.569317 -0.398867,-0.793375 -0.0273,-0.08515 -0.06912,-0.250602 -0.09292,-0.36768 l -0.04328,-0.212867 V 11.97649 7.7578527 l 0.05148,-0.2332474 c 0.169695,-0.7689575 0.582272,-1.3933073 1.206376,-1.8255998 0.14259,-0.098767 6.9479092,-3.9933427 7.1801252,-4.1090724 0.802624,-0.4000018 1.776159,-0.4004392 2.571424,-0.00116 0.237784,0.1193856 6.952662,3.9560635 7.132673,4.0753928 0.65771,0.4359967 1.083708,1.0690897 1.262326,1.8759961 l 0.0439,0.1983345 v 4.2476645 4.247664 l -0.04469,0.20319 c -0.134168,0.609857 -0.389201,1.084565 -0.805871,1.500016 -0.117799,0.117453 -0.291948,0.266183 -0.387926,0.3313 -0.146826,0.09962 -6.920935,3.982728 -7.165322,4.107365 -0.264102,0.134692 -0.658775,0.255602 -0.952143,0.291694 -0.155304,0.01912 -0.56179,0.02315 -0.687487,0.0068 z m 0.610481,-1.959316 c 0.0803,-0.025 1.282581,-0.700851 3.60595,-2.027074 3.257683,-1.859548 3.493796,-1.997802 3.612681,-2.115366 0.07504,-0.07421 0.148909,-0.170467 0.180145,-0.234753 0.115155,-0.236992 0.108236,0.03961 0.108486,-4.336096 1.74e-4,-2.9046283 -0.0058,-4.0477717 -0.02155,-4.1218797 C 19.741309,7.7121289 19.645208,7.537527 19.518072,7.4095015 19.411736,7.3024203 19.107725,7.1245319 15.906009,5.2959445 13.983234,4.1977953 12.363509,3.283623 12.306622,3.2644506 c -0.154914,-0.05221 -0.492591,-0.047054 -0.635228,0.0097 -0.05833,0.02321 -1.6731752,0.9370396 -3.5885342,2.0307331 -3.803977,2.172115 -3.622519,2.0601759 -3.760104,2.3195623 -0.128804,0.2428345 -0.120829,-0.044982 -0.121144,4.37217 -3.14e-4,4.404474 -0.0087,4.097088 0.117753,4.347471 0.132413,0.262309 -0.05866,0.144164 3.779146,2.336831 2.0003592,1.142873 3.5470132,2.01483 3.6090632,2.034681 0.15221,0.04869 0.426004,0.04838 0.583605,-6.79e-4 z"
       id="path4506"
       inkscape:connector-curvature="0" />
  </g>
  <g
     inkscape:groupmode="layer"
     id="layer5"
     inkscape:label="Layer 3"
     style="display:inline;opacity:0.95">
    <g
       id="g4658">
      <g
         transform="matrix(0.4733401,0.12971673,-0.12971673,0.4733401,7.884959,4.7265612)"
         id="g4539"
         style="fill:none;stroke:currentColor;stroke-width:2;stroke-linecap:round;stroke-linejoin:round">
        <path
           style="stroke:#e22b55;stroke-opacity:1"
           inkscape:connector-curvature="0"
           d="M 6.13,1 6.0562322,9.5116644 6,16 c 0,1.104569 0.8954305,2 2,2 l 15,0"
           id="path4525"
           sodipodi:nodetypes="cccsc" />
        <path
           style="stroke:#55e22b;stroke-opacity:1"
           inkscape:connector-curvature="0"
           d="M 1,6.13 16,6 a 2,2 0 0 1 2,2 v 15"
           id="path4527" />
      </g>
    </g>
  </g>
  <g
     inkscape:groupmode="layer"
     id="layer9"
     inkscape:label="Layer 4"
     style="display:inline">
    <g
       id="g10"
       transform="matrix(1.3333333,0,0,-1.3333333,-73.969097,961.27128)">
      <g
         id="g12">
        <g
           id="g14"
           clip-path="url(#clipPath18)" />
      </g>
      <g
         id="g24">
        <g
           id="g26"
           clip-path="url(#clipPath30)" />
      </g>
    </g>
  </g>
</svg>
